{"title":"Kings.Of.South.Beach-maz","uid":4221710,"size":730226888,"categoryP":"video","categoryS":"movies","magnet":"?xt=urn:btih:d08514422c501536d81def8e95c6e4d05b6627df&amp;dn=Kings.Of.South.Beach-maz&amp;tr=udp%3A%2F%2Ftracker.openbittorrent.com%3A80&amp;tr=udp%3A%2F%2Fopen.demonii.com%3A1337&amp;tr=udp%3A%2F%2Ftracker.coppersurfer.tk%3A6969&amp;tr=udp%3A%2F%2Fexodus.desync.com%3A6969","seeders":0,"leechers":1,"uploader":"MAZDASEX","files":52,"time":1212623506,"description":"[IMG]http://i226.photobucket.com/albums/dd108/mazdatre/KingsofSouthBeach2007.jpg[/IMG]\n\n******************* maz ***********************\n\nImbd:http://www.imdb.com/title/tt0780059/\nTrailer:\nRating: 5.1/10 (267 votes) \nGenre:Drama \nLanguage:English\nSub:N/A\n\nPlot:\nBased on the true story of a Miami Beach nightclub owner who \ntakes a young employee under his wing, while trying to avoid \nbankruptcy and the mafia. \n\nCast overview:\nDonnie Wahlberg ...  Andy Burnett \nJason Gedrick ...  Chris Troiano \nSteven Bauer ...  Allie Boy \nMaria Valentina Bove ...  Zoya Petrov \nRicardo Chavira ...  Enrique \nJuan Pablo Gamboa ...  Danny Hayes \nCristina Garcia ...  Officer Saban \nBrian Goodman ...  Lt. Jim Hawke \n\nGeneral\nFormat                           : AVI\nFormat/Info                      : Audio Video Interleave\nFile size                        : 702 MiB\nDuration                         : 1h 30mn\nOveral bit rate                  : 1085 Kbps\nWriting application              : Nandub v1.0rc2\nWriting library                  : Nandub build 1852/release\n\nVideo\nFormat                           : MPEG-4 Visual\nFormat profile                   : Streaming Video@L1\nFormat settings, BVOP            : Yes\nFormat settings, QPel            : No\nFormat settings, GMC             : 0 warppoint\nFormat settings, Matrix          : Default\nMuxing mode                      : Packet Bitstream\nCodec ID                         : XVID\nCodec ID/Hint                    : XviD\nDuration                         : 1h 30mn\nBit rate                         : 934 Kbps\nWidth                            : 624 pixels\nHeight                           : 352 pixels\nDisplay aspect ratio             : 16/9\nFrame rate                       : 23.976 fps\nResolution                       : 8 bits\nColorimetry                      : 4:2:0\nScan type                        : Progressive\nBits/(Pixel*Frame)               : 0.177\nStream size                      : 604 MiB\nWriting library                  : XviD 1.1.2\nWriting library/Date             : UTC 2006-11-01\n\nAudio\nFormat                           : MPEG Audio\nFormat version                   : Version 1 / Layer 3\nCodec ID                         : 55\nCodec ID/Hint                    : MP3\nDuration                         : 1h 30mn\nBit rate mode                    : VBR\nBit rate                         : 138 Kbps\nNominal bit rate                 : 135 Kbps\nChannel(s)                       : 2 channels\nSampling rate                    : 48.0 KHz\nResolution                       : 16 bits\nStream size                      : 89.6 MiB\nWriting library                  : LAME3.90.\nEncoding settings                : ABR\n\n********************** Enjoy ************************\n","torrent":{"xt":"urn:btih:d08514422c501536d81def8e95c6e4d05b6627df","amp;dn":"Kings.Of.South.Beach-maz","amp;tr":["udp%3A%2F%2Ftracker.openbittorrent.com%3A80","udp%3A%2F%2Fopen.demonii.com%3A1337","udp%3A%2F%2Ftracker.coppersurfer.tk%3A6969","udp%3A%2F%2Fexodus.desync.com%3A6969"],"infoHash":"d08514422c501536d81def8e95c6e4d05b6627df","infoHashBuffer":{"type":"Buffer","data":[208,133,20,66,44,80,21,54,216,29,239,142,149,198,228,208,91,102,39,223]},"announce":[],"urlList":[]}}